<?xml version="1.0" encoding="utf-8"?>
<!-- Generator: Adobe Illustrator 22.1.0, SVG Export Plug-In . SVG Version: 6.00 Build 0)  -->
<svg version="1.1" id="图层_1" xmlns="http://www.w3.org/2000/svg" xmlns:xlink="http://www.w3.org/1999/xlink" x="0px" y="0px"
	 viewBox="0 0 720 240" style="enable-background:new 0 0 720 240;" xml:space="preserve">
<g>
	<path d="M107.9,138c0,5.8-0.5,10.4-1.5,13.7c-1.3,4.4-3.8,8.3-7.5,11.6c-3.7,3.3-8.6,5.5-14.8,6.6c-3.8,0.7-9.3,1-16.6,1h-8.7
		c-1,0-2.6,0-4.9,0c-2.3,0-3.6,0-3.9,0c-6.4,0-11.6-0.6-15.8-1.8c-6.1-1.7-10.8-4.8-14.1-9.2c-2-2.8-3.5-6.8-4.4-11.8
		c-0.6-3.2-0.8-6.4-0.8-9.6c0-0.6,0-1,0-1.1V67.4h30.5v66.2c0,2.8,0.1,5.1,0.3,6.7c0.2,1.6,0.6,2.9,1.3,3.7c0.6,1,1.8,1.6,3.8,1.8
		c2,0.2,3.5,0.3,4.6,0.3c0.9,0,1.5,0,1.8,0h10.7c0.6,0,0.9,0,1.1,0c1.6,0,2.7-0.1,3.3-0.3c0.6-0.2,1.5-0.8,2.6-2
		c0.7-0.7,1.1-2.1,1.3-4.4c0.2-2.2,0.3-3.7,0.3-4.6V67.4h31.4V138z M105.4,138V69.9H79v65c0,0.6,0,1.1,0,1.5c0,2.6-0.1,4.4-0.3,5.6
		c-0.2,1.2-0.9,2.4-2,3.5c-1.3,1.5-2.8,2.4-4.4,2.8c-0.9,0.2-2.4,0.3-4.5,0.3H57.2c-0.6,0-1.1,0-1.7,0c-0.6,0-1.1,0-1.6,0
		c-1.9,0-3.4-0.2-4.7-0.5c-1.9-0.6-3.3-1.4-4.4-2.7c-0.8-1.2-1.4-2.9-1.6-5c-0.2-2.1-0.4-4.3-0.4-6.8V69.9H17.5v67.7
		c0,3.2,0.2,6.1,0.5,8.7c0.8,5.6,2.2,9.7,4.2,12.4c2.8,3.9,7.2,6.7,13,8.2c4.1,1.1,9.3,1.7,15.3,1.7c0.6,0,0.9,0,1.1,0
		c1.3,0,2.6,0,3.7,0c1.2,0,2.3,0,3.4,0h8.7c6.8,0,12.1-0.3,16-1c5.9-1,10.5-3,13.8-6c3.2-3,5.5-6.4,6.6-10.4
		C104.9,147.8,105.4,143.5,105.4,138z"/>
	<path d="M206.4,110.1c0,6.2-0.6,11.4-1.8,15.5c-1.4,5-3.9,9-7.3,12c-3.4,3-7.4,5.1-11.9,6.2c-3.4,0.8-8.1,1.2-13.9,1.2h-23.3V171
		h-30.8V67.4h51.6c5.5,0,10.3,0.5,14.4,1.3c4,0.9,7.9,2.5,11.5,4.9c4.8,3.2,8,7.8,9.8,13.8c1.1,3.7,1.7,8.2,1.7,13.7
		c0,1.4,0,2.4,0,2.9V110.1z M203.9,110.1V104c0-1.1,0-2,0-2.7c0-5.3-0.5-9.6-1.5-13c-1.6-5.5-4.6-9.7-9-12.6
		c-3.2-2.1-6.8-3.6-10.6-4.5c-3.8-0.9-8.4-1.3-13.7-1.3h-49.1v98.7h25.8v-25.9h25.8c5.9,0,10.3-0.3,13.2-1c3.9-1,7.6-2.9,11.1-5.9
		c2.9-2.5,5-5.9,6.2-10.3C203.3,121,203.9,115.9,203.9,110.1z M177.7,109.7c0,2.5-0.2,4.5-0.6,6c-0.4,1.5-1.1,2.8-2.2,3.8
		c-1,1.1-2.3,1.8-3.7,2.1c-1.4,0.3-2.9,0.5-4.4,0.5h-21.7V91h21.1c2.1,0,3.6,0.1,4.7,0.3c1,0.2,2,0.6,2.8,1c1.6,1,2.7,2.7,3.3,5
		c0.4,1.6,0.6,3.7,0.6,6.3c0,1,0,1.7,0,2.2V109.7z M175.2,109.7v-3.8c0-3.3-0.1-5.6-0.3-6.8c-0.4-2.4-1.2-3.9-2.4-4.6
		c-0.6-0.3-1.4-0.6-2.6-0.7c-1.2-0.1-2.4-0.2-3.6-0.2h-18.7v26.1h19.2c1.4,0,2.6-0.1,3.7-0.4c1.1-0.3,2-0.7,2.7-1.4
		c0.7-0.7,1.2-1.9,1.6-3.6C175,112.4,175.2,110.9,175.2,109.7z"/>
	<path d="M306.4,141.3c0,4.7-0.2,8.1-0.6,10.2c-0.7,3.3-2.1,6.4-4.4,9.4c-3.6,4.6-8.9,7.7-16.1,9c-3.9,0.8-10.4,1.1-19.6,1.1h-5.5
		c-7,0-12.4-0.3-16.2-0.9c-7.5-1.2-13.1-3.7-16.8-7.3c-4.1-4-7.1-8.8-9-14.4c-1.5-4.4-2.3-9.1-2.3-13.9v-30.7
		c0-6.4,0.5-11.4,1.6-14.8c1.4-4.7,4.1-9.1,8.3-13.1c3.9-3.7,9.3-6.3,16.3-7.6c3.6-0.7,8.1-1,13.5-1h12.5h4.8
		c4.7,0,8.5,0.3,11.5,0.9c4.5,1,8.5,2.8,12,5.6c3.5,2.8,6,6.3,7.5,10.5c1.2,3.5,1.9,8,1.9,13.3v8.8H276v-7c0-1.9-0.4-3.4-1.2-4.5
		c-0.8-1.1-1.9-1.8-3.3-2.1c-1.4-0.3-3.1-0.5-5-0.5h-7.6c-2.3,0-4,0.1-5,0.3c-1.1,0.2-2.2,0.7-3.4,1.6c-1.6,1.1-2.7,2.6-3.3,4.6
		c-0.6,2-0.9,4.2-0.9,6.7v26.2c0,2.7,0.2,4.8,0.6,6.3c0.4,1.5,1.3,3,2.7,4.5c1.2,1.2,2.6,2.1,4.1,2.6c1.5,0.6,3.7,0.9,6.5,0.9h5.9
		c1.7,0,3.1-0.1,4.2-0.2c1.1-0.1,2.2-0.6,3.3-1.2c2.4-1.7,3.6-4,3.6-7.2v-7.7h29V141.3z M303.9,141.3v-8.9h-24v5.2
		c0,2.1-0.4,3.9-1.1,5.3c-0.7,1.5-1.9,2.8-3.6,3.9c-1.1,0.8-2.3,1.3-3.5,1.5c-1.2,0.2-2.5,0.4-3.7,0.4c-0.8,0-1.4,0-1.7,0h-5.9
		c-0.5,0-0.9,0-1.1,0c-2.1,0-3.8-0.2-5.2-0.6c-2.2-0.6-4.2-1.8-5.9-3.5c-1.7-1.7-2.9-3.6-3.4-5.5c-0.6-2-0.8-4.3-0.8-7.1v-26.2
		c0-3.7,0.4-6.5,1.3-8.5c0.9-2,2.2-3.6,3.9-4.9c1-0.8,2.2-1.3,3.6-1.7c1.3-0.4,3.4-0.6,6.3-0.6h7.6c2.6,0,4.4,0.1,5.3,0.3
		c2,0.5,3.7,1.6,5,3.2c0.7,0.8,1.2,1.7,1.4,2.6c0.2,0.9,0.4,2.1,0.4,3.4v4.6h24.8v-6.3c0-5.2-0.6-9.3-1.7-12.5
		c-1.3-3.7-3.7-6.9-7-9.6c-2.4-1.9-5.3-3.4-8.5-4.3c-3.2-1-7.8-1.4-13.8-1.4c-1,0-1.8,0-2.5,0c-0.7,0-1.2,0-1.7,0h-12.5
		c-5,0-9.3,0.3-13,1c-6.6,1.2-11.7,3.6-15.1,6.9c-3.8,3.7-6.3,7.6-7.6,11.8c-1,3.2-1.5,8-1.5,14.2v30.7c0,4.7,0.7,9.1,2.1,13.1
		c1.8,5.2,4.6,9.6,8.4,13.4c3.1,3.2,8.3,5.4,15.5,6.5c4.3,0.7,9.5,1,15.8,1h5.5c8.9,0,15.2-0.3,19-1c6.6-1.2,11.5-3.9,14.6-8.1
		c2-2.7,3.3-5.5,3.9-8.4C303.7,149,303.9,145.8,303.9,141.3z"/>
	<path d="M418.1,67.4l-36.5,65.9V171h-31.5v-38.2l-37.6-65.4h34.4l19,36.8l17.5-36.8H418.1z M413.8,69.9h-28.8l-19.1,40l-20.5-40
		h-28.7l35.9,62.2v36.4h26.5v-36.1L413.8,69.9z"/>
	<path d="M454.1,87.2H427V67.4h27.1V87.2z M454.1,171H427V95.8h27.1V171z M451.6,84.7V69.9h-22.1v14.8H451.6z M451.6,168.5V98.3
		h-22.1v70.3H451.6z"/>
	<path d="M539.4,146.1c0,3.2-0.3,5.9-0.9,8.1c-0.6,2.2-1.7,4.6-3.4,7.1c-2.5,3.7-5.7,6.3-9.5,8c-3.4,1.4-7.4,2.2-11.9,2.2h-2.6
		c-2.9,0-5.5-0.3-7.7-1c-2.2-0.7-4.5-1.9-6.8-3.5c-1.4-0.9-2.6-2-3.7-3.2v7.4H467V67.4h24.6v36.7c0.7-0.8,1.4-1.4,2-2
		c0.7-0.6,1.5-1.2,2.5-1.9c4.4-2.9,9.2-4.4,14.3-4.4h2.6c4,0,7.4,0.4,10.3,1.3c2.9,0.9,5.6,2.6,8.3,5c3,2.8,5.1,6.2,6.3,10.5
		c0.9,3.2,1.3,6.9,1.3,11.3V146.1z M536.9,146.1v-22.3c0-4.3-0.4-7.8-1.1-10.5c-1.1-3.9-2.9-6.9-5.5-9.3c-2.5-2.3-5.1-3.9-7.6-4.7
		c-2.5-0.8-5.7-1.2-9.5-1.2h-2.6c-4.6,0-8.9,1.3-12.8,3.9c-1.3,0.9-2.4,1.8-3.4,2.8c-1,1-1.9,2.1-2.8,3.4l-2.5,3.5V69.9h-19.6v98.7
		h20.8V156l2.5,3.4c0.8,1.1,1.5,2.1,2.4,3c0.8,0.9,1.8,1.7,3,2.5c2.1,1.5,4.2,2.6,6.1,3.2c1.9,0.6,4.2,0.9,6.9,0.9h2.6
		c4.3,0,7.9-0.6,10.8-1.9c3.4-1.4,6.2-3.9,8.5-7.2c1.5-2.3,2.5-4.4,3-6.3C536.6,151.6,536.9,149.1,536.9,146.1z M516.5,141.7
		c0,2.5-0.3,4.4-0.8,5.9c-0.5,1.4-1.2,2.5-2.1,3.4c-0.9,0.8-2.1,1.5-3.6,2c-1.5,0.5-3.3,0.7-5.3,0.7h-3.4c-2.1,0-4-0.4-5.6-1.2
		c-1.7-0.8-2.9-2-3.7-3.5c-0.8-1.5-1.3-2.9-1.5-4.1c-0.2-1.2-0.3-3.1-0.3-5.6v-12.5c0-3.5,0.4-6,1.2-7.6c0.8-1.6,2.1-2.9,3.8-3.8
		c1-0.6,2.1-0.9,3.3-1.2c1.2-0.2,2.6-0.4,4.2-0.4h2.6c1.2,0,2.6,0.2,4,0.5c1.4,0.3,2.7,1,4,1.9c1.2,0.9,2.2,2.3,2.8,4.2
		c0.4,1.3,0.6,2.8,0.6,4.4V141.7z M514,141.7v-17c0-1.5-0.2-2.8-0.5-3.9c-0.3-1.2-1-2.1-2.1-2.8c-0.6-0.6-1.6-1-3-1.3
		c-1.3-0.3-2.5-0.5-3.4-0.5h-2.6c-3,0-5,0.4-6.2,1.1c-1.7,1.2-2.6,2-2.9,2.6c-0.6,1.1-0.8,3.4-0.8,6.7v12.5c0,2.3,0.1,3.9,0.3,4.9
		c0.2,1,0.6,2.1,1.2,3.3c0.6,1.2,1.6,2.1,2.9,2.7c1.3,0.6,2.8,0.9,4.4,0.9h3.4c1.3,0,2.7-0.1,4-0.4c1.4-0.3,2.5-0.8,3.3-1.7
		c0.6-0.6,1-1.4,1.4-2.5C513.8,145.4,514,143.8,514,141.7z"/>
	<path d="M620.4,171h-24.8v-7c-0.5,0.5-0.9,0.9-1.3,1.3c-0.2,0.2-0.8,0.6-1.8,1.2c-2.2,1.6-4.8,2.8-7.6,3.6s-5.4,1.2-7.6,1.2H575
		c-4.5,0-8.4-0.5-11.8-1.5c-3.4-1-6.2-2.7-8.5-5.2c-1.9-2.1-3.2-4.6-4.1-7.5c-0.9-2.9-1.3-6.2-1.3-9.9c0-3.7,0.4-7,1.2-10
		c0.8-3,2.2-5.5,4.2-7.4c2-1.9,4.9-3.3,8.6-4.3c3.7-1,7.2-1.5,10.4-1.5h4.1c3.5,0,6,0.2,7.7,0.5c1.7,0.3,3.7,1.2,6,2.6
		c0.6,0.3,1.1,0.7,1.5,1c0.4,0.3,0.9,0.7,1.3,1.1v-2.4c0-0.6,0-1.2,0-1.9c0-0.7,0-1.5,0-2.4c0-2.1-0.1-4.1-0.4-5.8
		c-0.2-1.7-0.7-2.8-1.3-3.4c-1-1.2-2.6-1.8-5-1.8h-5.5c-1,0-1.9,0.4-2.9,1.1c-1.4,1.2-2.2,2.3-2.2,3.5v3.5h-25v-5.7
		c0-2.5,0.3-4.6,0.8-6.5c0.6-1.9,1.6-3.7,3.2-5.5c2.1-2.4,5.1-4.1,9-5.2c3.8-1,8.2-1.5,13.1-1.5h9.3c6.2,0,11,0.3,14.2,0.9
		c5.2,1,9.1,2.9,11.7,5.7c2.6,2.8,4.5,6.5,5.6,10.9c0.8,3.3,1.2,6.7,1.2,10.2V171z M617.9,168.5v-45.1c0-3.6-0.3-6.8-1-9.5
		c-1-3.9-2.6-7.1-4.8-9.6c-2.2-2.5-5.5-4.1-9.7-4.9c-4.2-0.8-9.1-1.2-14.7-1.2h-9.3c-4.6,0-8.7,0.5-12.2,1.4c-3.5,1-6.2,2.4-8,4.4
		c-1.4,1.6-2.3,3.1-2.7,4.6c-0.5,1.5-0.7,3.4-0.7,5.7v3.2h20v-1c0-1.2,0.3-2.3,0.8-3.1c0.5-0.8,1.2-1.6,2-2.2
		c0.8-0.6,1.6-1.1,2.3-1.4c0.7-0.3,1.5-0.5,2.4-0.5h5.5c1.5,0,2.8,0.2,4,0.6c1.1,0.4,2.1,1.1,3,2.1c0.9,1,1.4,2.4,1.8,4.2
		c0.3,1.8,0.5,3.8,0.5,5.9c0,1,0,1.9,0,2.7c0,0.8,0,1.6,0,2.2v8.9l-2.2-2.7c-1.2-1.5-2.7-2.8-4.6-3.9c-1.9-1.2-3.6-1.9-5.1-2.2
		c-1.6-0.3-3.9-0.4-7.1-0.4h-4.1c-2.8,0-6,0.5-9.6,1.4c-3.6,0.9-6.2,2.2-7.8,3.7c-1.6,1.5-2.7,3.6-3.5,6.2c-0.7,2.6-1.1,5.7-1.1,9.3
		c0,6.9,1.6,12.2,4.7,15.8c1.8,2,4.3,3.5,7.5,4.4s6.8,1.4,10.8,1.4h2.3c2.3,0,4.6-0.3,7-1c2.4-0.7,4.6-1.8,6.8-3.4
		c1-0.7,1.9-1.4,2.5-2s1.4-1.6,2.2-2.7l2.5-3.2v11.9H617.9z M597.8,148.1c0,2.4-0.7,4.2-2.2,5.5c-1.5,1.3-3.1,2-4.9,2h-9.3
		c-1.2,0-2.2-0.1-3-0.3c-0.8-0.2-1.7-0.6-2.5-1.2c-1.2-0.8-2.1-1.8-2.6-2.8c-0.5-1-0.8-2.1-0.8-3.2v-2.8c0-1.5,0.4-2.8,1.1-3.8
		c0.7-1,1.5-1.8,2.2-2.2c0.8-0.4,1.7-0.7,2.8-0.9c1.1-0.1,2.1-0.2,3.2-0.2h8.7c1,0,1.9,0.1,2.9,0.4c1,0.3,1.7,0.7,2.3,1.3
		c0.6,0.6,1.1,1.4,1.5,2.4c0.5,1,0.7,2.1,0.7,3.4V148.1z M595.3,148.1v-2.5c0-0.9-0.1-1.7-0.4-2.4c-0.3-0.6-0.6-1.2-1-1.7
		c0-0.2-0.4-0.4-1.3-0.6c-0.9-0.2-1.6-0.3-2.1-0.3h-8.7c-1,0-2.2,0.1-3.4,0.3c-0.2,0-0.5,0.1-0.9,0.2c-0.8,0.5-1.3,1-1.8,1.7
		c-0.4,0.6-0.6,1.5-0.6,2.5l-0.1,2.8c0,1,0.2,1.8,0.6,2.3c0.4,0.5,1,1,1.8,1.7c0.6,0.4,1.2,0.7,1.8,0.8c0.6,0.1,1.3,0.2,2.2,0.2h9.3
		c1.1,0,2.2-0.4,3.2-1.2C594.9,151,595.3,149.7,595.3,148.1z"/>
	<path d="M701.9,171h-26.1v-48.6c0-1.1-0.2-2.1-0.5-2.9c-0.3-0.8-0.9-1.5-1.7-2c-1-0.8-2.7-1.2-5.2-1.2h-1.3c-1.7,0-3,0.2-3.9,0.6
		c-0.9,0.4-1.9,1.2-3,2.3c-1.1,1.1-1.8,2.3-2.3,3.3c-0.5,1.1-0.7,2.3-0.7,3.6V171h-27.1V95.8h26.1v9.7c0.7-0.8,1.2-1.4,1.5-1.7
		c0.6-0.8,1.2-1.4,1.9-1.9c2-2,4.4-3.5,7-4.5c2.7-1,5.4-1.5,8-1.5h2.7c3.2,0,6.8,0.6,10.5,1.9c3.8,1.3,6.6,3,8.7,5.1
		c2,2.1,3.4,4.6,4.2,7.3c0.8,2.7,1.2,5.8,1.2,9.2V171z M699.4,168.5v-49.2c0-3.2-0.4-6-1.1-8.3c-0.7-2.4-1.9-4.5-3.5-6.3
		c-1.6-1.8-4.2-3.3-7.9-4.6c-3.7-1.2-6.9-1.9-9.6-1.9h-2.7c-2.3,0-4.6,0.4-7,1.3c-2.4,0.9-4.5,2.2-6.3,4c-1.3,1.4-2.9,3.5-4.9,6.4
		c-0.6,1-1.5,2.3-2.6,4.1V98.3h-21.1v70.3h22.1v-42.4c0-3.1,1.1-5.9,3.4-8.3c2.3-2.7,5.3-4.1,8.9-4.1h1.3c2.8,0,5,0.6,6.6,1.7
		c1.2,0.9,2,2,2.5,3.2c0.5,1.2,0.7,2.5,0.7,3.8v46.1H699.4z"/>
</g>
<g>
</g>
<g>
</g>
<g>
</g>
<g>
</g>
<g>
</g>
</svg>
